<svg width="580" height="400" xmlns="http://www.w3.org/2000/svg">
 <!-- Created with Method Draw - http://github.com/duopixel/Method-Draw/ -->

 <g>
  <title>background</title>
  <rect fill="#fff" id="canvas_background" height="402" width="582" y="-1" x="-1"/>
  <g display="none" overflow="visible" y="0" x="0" height="100%" width="100%" id="canvasGrid">
   <rect fill="url(#gridpattern)" stroke-width="0" y="0" x="0" height="100%" width="100%"/>
  </g>
 </g>
 <g>
  <title>Layer 1</title>
  <g fill="#fff" id="svg_7">
   <g transform="matrix(26.298489592562873,0,0,26.298489592562873,0,0) " id="svg_4">
    <g id="svg_5">
     <path id="svg_6" d="m-1.970532,-3.416002c0,-0.538 0.433,-0.979 0.96,-0.979l3.48,0c0.432,0 0.817,0.294 0.93,0.718l3.926,14.445l10.707,0l3.558,-8.315l-11.86,0a0.973,0.973 0 0 1 -0.962,-0.978c0,-0.538 0.432,-0.978 0.961,-0.978l13.336,0a0.95,0.95 0 0 1 0.801,0.44c0.177,0.277 0.209,0.62 0.08,0.93l-4.391,10.27a0.963,0.963 0 0 1 -0.882,0.588l-12.07,0a0.964,0.964 0 0 1 -0.929,-0.717l-3.927,-14.446l-2.757,0a0.973,0.973 0 0 1 -0.961,-0.979l0,0.001zm5.48,20.804c0,-1.223 0.978,-2.217 2.18,-2.217c1.202,0 2.18,0.995 2.18,2.217c0,1.223 -0.978,2.217 -2.18,2.217c-1.202,0 -2.18,-0.994 -2.18,-2.217zm13.64,0.147c-0.08,-1.207 0.818,-2.283 2.02,-2.364c1.202,-0.082 2.244,0.847 2.324,2.054c0.032,0.603 -0.144,1.174 -0.529,1.614a2.162,2.162 0 0 1 -1.49,0.766l-0.16,0c-1.139,0 -2.084,-0.913 -2.165,-2.07z" fill="none"/>
    </g>
   </g>
  </g>
 </g>
</svg>